<svg width="512" height="512" viewBox="0 0 512 512" fill="none" xmlns="http://www.w3.org/2000/svg">
<g clip-path="url(#clip0_41:46)">
<path d="M511.494 256C511.494 397.107 397.104 511.497 255.997 511.497C114.89 511.497 0.5 397.107 0.5 256C0.5 114.893 114.89 0.50293 255.997 0.50293C397.104 0.50293 511.494 114.893 511.494 256Z" fill="white" stroke="#DBDBDB"/>
<path d="M36.4151 290.275C41.4951 290.507 45.9021 284.251 50.9991 268.507C54.2551 258.652 63.6281 252.133 73.9991 252.507C73.9991 252.507 83.2391 264.507 85.5031 311.995C87.9031 362.891 105.855 344.795 110.407 365.291C118.519 401.819 133.207 407.563 147.023 420.219C160.839 432.876 174.223 403.011 183.639 365.291C193.055 327.571 203.799 342.659 220.255 328.675C236.711 314.691 233.407 301.667 256.871 292.059C280.335 282.451 274.695 292.739 275.183 273.747C275.503 261.315 277.495 249.067 281.351 246.259C291.983 238.507 290.343 236.755 293.495 218.811C296.647 200.867 250.175 181.539 256.879 163.883C261.44 152.104 261.44 139.046 256.879 127.267C256.879 127.267 236.079 117.227 220.263 163.883C211.607 189.339 204.943 152.491 201.951 145.571C198.959 138.651 201.951 108.955 201.951 108.955C176.183 99.5789 188.999 118.331 165.335 108.955C141.671 99.5789 134.343 100.107 147.023 72.3389C147.023 72.3389 153.911 43.2269 135.023 30.3799C52.9001 74.4199 1.20808 159.622 0.0800781 252.802C10.3521 268.435 26.2241 289.819 36.4151 290.275Z" fill="#DBDBDB"/>
<path d="M427.72 66.1538C430.664 76.7058 435.368 93.3538 439.984 108.954C447.496 134.274 440.44 151.354 439.984 163.882C439.528 176.41 458.84 220.226 458.296 218.81C464.932 223.389 469.844 230.058 472.248 237.754C473.192 253.29 495.184 258.21 511.56 270.554C511.832 265.754 512 260.874 512 255.986C512.074 183.626 481.443 114.631 427.72 66.1538Z" fill="#DBDBDB"/>
<path d="M293.512 72.33C328.032 78.098 347 92.282 364.864 94.066C380.704 95.667 365.264 71.498 351.44 53.49C343.82 42.237 340.71 28.53 342.728 15.09C318.778 6.47497 293.673 1.49396 268.248 0.313965C277.144 11.25 290 23.858 291.752 29.786C294.296 38.402 268.992 68.234 293.512 72.33Z" fill="#DBDBDB"/>
<path d="M498.84 337.003C489.176 325.259 467.152 300.755 458.296 310.363C446.36 323.299 457.496 365.155 439.984 365.291C422.472 365.427 396.504 382.891 382.864 410.667C369.616 437.627 324.64 427.099 327.848 501.707C408.353 478.077 472.212 416.567 498.84 337.003Z" fill="#DBDBDB"/>
</g>
<defs>
<clipPath id="clip0_41:46">
<rect width="512" height="512" fill="white"/>
</clipPath>
</defs>
</svg>
