<svg width="417" height="240" viewBox="0 0 417 240" fill="none" xmlns="http://www.w3.org/2000/svg">
<path fill-rule="evenodd" clip-rule="evenodd" d="M139.237 0H138.453L0 239.808L0.333217 240H46.0769L161.939 39.3208L139.237 0Z" fill="black"/>
<path fill-rule="evenodd" clip-rule="evenodd" d="M115.964 39.7752L138.928 0L139.188 2.55727e-07L277.64 239.807L277.306 240H231.563L115.964 39.7752Z" fill="black"/>
<path fill-rule="evenodd" clip-rule="evenodd" d="M163.039 200H31V240H186.133L163.039 200Z" fill="black"/>
<path fill-rule="evenodd" clip-rule="evenodd" d="M139.237 0H138.453L0 239.808L0.333217 240H46.0769L161.939 39.3208L139.237 0Z" fill="black"/>
<path fill-rule="evenodd" clip-rule="evenodd" d="M115.964 39.7752L138.928 0L139.188 2.55727e-07L277.64 239.807L277.306 240H231.563L115.964 39.7752Z" fill="black"/>
<path fill-rule="evenodd" clip-rule="evenodd" d="M163.039 200H31V240H186.133L163.039 200Z" fill="black"/>
<path fill-rule="evenodd" clip-rule="evenodd" d="M416.956 0L393.862 40H209.094L186 0H416.956Z" fill="black"/>
<path fill-rule="evenodd" clip-rule="evenodd" d="M232 80H370.889L347.795 120H254.779L235.781 87.0946L235.939 86.8219L232 80Z" fill="black"/>
</svg>
