<svg width="200" height="233" viewBox="0 0 200 233" fill="none" xmlns="http://www.w3.org/2000/svg">
<path fill-rule="evenodd" clip-rule="evenodd" d="M68.8702 159.341H0L1.86091 153.741H67.1202L34.3265 56.0428L52.9498 0L127.67 226.891H158.12V232.491H55.5702V226.891H91.6202L68.8702 159.341Z" fill="black"/>
<path fill-rule="evenodd" clip-rule="evenodd" d="M126.346 121.194H101V115.639H126.346C131.48 115.639 135.563 114.944 138.596 113.556C141.63 111.935 143.963 109.736 145.596 106.958C147.463 104.181 148.863 100.824 149.796 96.8889C150.73 92.9537 151.663 88.5556 152.596 83.6945C153.296 80.4537 154.23 78.8333 155.396 78.8333C156.796 78.8333 157.496 80.2222 157.496 83V153.486C157.496 156.495 156.796 158 155.396 158C154.23 158 153.296 156.38 152.596 153.139C151.663 148.278 150.73 143.88 149.796 139.944C148.863 136.009 147.463 132.653 145.596 129.875C143.963 127.097 141.63 125.014 138.596 123.625C135.563 122.005 131.48 121.194 126.346 121.194ZM151.896 13.5556H101V8H191.096C196.93 8 199.846 10.7778 199.846 16.3333V69.1111C199.846 72.1204 199.03 73.625 197.396 73.625C195.53 73.625 194.596 72.0046 194.596 68.7639C194.363 63.6713 193.43 58 191.796 51.75C190.396 45.2685 188.063 39.25 184.796 33.6944C181.53 27.9074 177.213 23.162 171.846 19.4583C166.48 15.5232 159.83 13.5556 151.896 13.5556Z" fill="black"/>
</svg>
